<svg xmlns="http://www.w3.org/2000/svg" viewBox="0 0 200 200">
  <!-- Mug body -->
  <path d="M40 60 L40 160 Q40 180 60 180 L140 180 Q160 180 160 160 L160 60 Q160 40 140 40 L60 40 Q40 40 40 60 Z" fill="#4A0E0E"/>
  
  <!-- Mug inner -->
  <path d="M50 70 L50 160 Q50 170 60 170 L140 170 Q150 170 150 160 L150 70 Q150 60 140 60 L60 60 Q50 60 50 70 Z" fill="#2E0808"/>
  
  <!-- Hot cocoa liquid -->
  <path d="M55 75 L55 155 Q55 165 65 165 L135 165 Q145 165 145 155 L145 75 Q145 65 135 65 L65 65 Q55 65 55 75 Z" fill="#1A0404"/>
  
  <!-- Marshmallows (now looking like evil eyes) -->
  <ellipse cx="80" cy="100" rx="15" ry="10" fill="#FFF" transform="rotate(-20 80 100)"/>
  <ellipse cx="120" cy="100" rx="15" ry="10" fill="#FFF" transform="rotate(20 120 100)"/>
  
  <!-- Handle (now looks like a curved horn) -->
  <path d="M160 70 Q200 70 180 120 Q160 170 160 130" fill="none" stroke="#4A0E0E" stroke-width="10"/>
  
  <!-- Evil eyes -->
  <circle cx="80" cy="100" r="8" fill="#FF0000"/>
  <circle cx="120" cy="100" r="8" fill="#FF0000"/>
  <circle cx="80" cy="100" r="4" fill="#000"/>
  <circle cx="120" cy="100" r="4" fill="#000"/>
  
  <!-- Eyebrows -->
  <path d="M65 85 Q80 75 95 85" fill="none" stroke="#FFF" stroke-width="3"/>
  <path d="M105 85 Q120 75 135 85" fill="none" stroke="#FFF" stroke-width="3"/>
  
  <!-- Evil grin -->
  <path d="M70 130 Q100 160 130 130" fill="none" stroke="#FFF" stroke-width="3"/>
  <path d="M75 135 Q100 160 125 135" fill="#1A0404"/>
  
  <!-- Sharp teeth -->
  <path d="M80 130 L85 138 L90 130 L95 138 L100 130 L105 138 L110 130 L115 138 L120 130" fill="none" stroke="#FFF" stroke-width="2"/>
  
  <!-- Menacing steam -->
  <path d="M60 40 Q70 20 80 40 Q90 60 100 40 Q110 20 120 40 Q130 60 140 40" fill="none" stroke="#FF6666" stroke-width="3">
    <animate attributeName="d" 
             values="M60 40 Q70 20 80 40 Q90 60 100 40 Q110 20 120 40 Q130 60 140 40;
                     M60 40 Q70 30 80 40 Q90 50 100 40 Q110 30 120 40 Q130 50 140 40;
                     M60 40 Q70 20 80 40 Q90 60 100 40 Q110 20 120 40 Q130 60 140 40" 
             dur="2s" 
             repeatCount="indefinite"/>
  </path>
</svg>